<svg width="1440" height="333" viewBox="0 0 1440 333" fill="none" xmlns="http://www.w3.org/2000/svg">
<mask id="mask0_372_5081" style="mask-type:alpha" maskUnits="userSpaceOnUse" x="0" y="0" width="1440" height="333">
<rect width="1440" height="333" fill="url(#paint0_radial_372_5081)" style=""/>
</mask>
<g mask="url(#mask0_372_5081)">
<mask id="path-2-outside-1_372_5081" maskUnits="userSpaceOnUse" x="320" y="-175" width="162" height="322" fill="black">
<rect fill="white" x="320" y="-175" width="162" height="322"/>
<path d="M321.5 146C342.446 146 363.187 141.861 382.538 133.821C401.889 125.78 419.473 113.994 434.284 99.1371C449.094 84.2797 460.843 66.6414 468.859 47.2293C476.874 27.8172 481 7.01149 481 -14C481 -35.0115 476.874 -55.8173 468.859 -75.2294C460.843 -94.6415 449.094 -112.28 434.284 -127.137C419.473 -141.994 401.889 -153.78 382.538 -161.821C363.187 -169.861 342.446 -174 321.5 -174L321.5 -14L321.5 146Z"/>
</mask>
<path d="M321.5 146C342.446 146 363.187 141.861 382.538 133.821C401.889 125.78 419.473 113.994 434.284 99.1371C449.094 84.2797 460.843 66.6414 468.859 47.2293C476.874 27.8172 481 7.01149 481 -14C481 -35.0115 476.874 -55.8173 468.859 -75.2294C460.843 -94.6415 449.094 -112.28 434.284 -127.137C419.473 -141.994 401.889 -153.78 382.538 -161.821C363.187 -169.861 342.446 -174 321.5 -174L321.5 -14L321.5 146Z" stroke="white" stroke-opacity="0.08" style="stroke:white;stroke:white;stroke-opacity:0.08;" stroke-width="2" mask="url(#path-2-outside-1_372_5081)"/>
<mask id="path-3-outside-2_372_5081" maskUnits="userSpaceOnUse" x="320" y="146" width="162" height="322" fill="black">
<rect fill="white" x="320" y="146" width="162" height="322"/>
<path d="M480.5 147C459.554 147 438.813 151.139 419.462 159.179C400.111 167.22 382.527 179.006 367.716 193.863C352.906 208.72 341.157 226.359 333.141 245.771C325.126 265.183 321 285.989 321 307C321 328.012 325.126 348.817 333.141 368.229C341.157 387.641 352.906 405.28 367.716 420.137C382.527 434.994 400.111 446.78 419.462 454.821C438.813 462.861 459.554 467 480.5 467L480.5 307L480.5 147Z"/>
</mask>
<path d="M480.5 147C459.554 147 438.813 151.139 419.462 159.179C400.111 167.22 382.527 179.006 367.716 193.863C352.906 208.72 341.157 226.359 333.141 245.771C325.126 265.183 321 285.989 321 307C321 328.012 325.126 348.817 333.141 368.229C341.157 387.641 352.906 405.28 367.716 420.137C382.527 434.994 400.111 446.78 419.462 454.821C438.813 462.861 459.554 467 480.5 467L480.5 307L480.5 147Z" fill="white" fill-opacity="0.08" style="fill:white;fill:white;fill-opacity:0.08;"/>
<path d="M480.5 147C459.554 147 438.813 151.139 419.462 159.179C400.111 167.22 382.527 179.006 367.716 193.863C352.906 208.72 341.157 226.359 333.141 245.771C325.126 265.183 321 285.989 321 307C321 328.012 325.126 348.817 333.141 368.229C341.157 387.641 352.906 405.28 367.716 420.137C382.527 434.994 400.111 446.78 419.462 454.821C438.813 462.861 459.554 467 480.5 467L480.5 307L480.5 147Z" stroke="white" stroke-opacity="0.08" style="stroke:white;stroke:white;stroke-opacity:0.08;" stroke-width="2" mask="url(#path-3-outside-2_372_5081)"/>
<mask id="path-4-outside-3_372_5081" maskUnits="userSpaceOnUse" x="480" y="-175" width="162" height="322" fill="black">
<rect fill="white" x="480" y="-175" width="162" height="322"/>
<path d="M481.5 -174C502.446 -174 523.187 -169.861 542.538 -161.821C561.889 -153.78 579.473 -141.994 594.284 -127.137C609.094 -112.28 620.843 -94.6414 628.859 -75.2293C636.874 -55.8172 641 -35.0115 641 -14C641 7.01151 636.874 27.8173 628.859 47.2294C620.843 66.6415 609.094 84.2797 594.284 99.1371C579.473 113.994 561.889 125.78 542.538 133.821C523.187 141.861 502.446 146 481.5 146L481.5 -14L481.5 -174Z"/>
</mask>
<path d="M481.5 -174C502.446 -174 523.187 -169.861 542.538 -161.821C561.889 -153.78 579.473 -141.994 594.284 -127.137C609.094 -112.28 620.843 -94.6414 628.859 -75.2293C636.874 -55.8172 641 -35.0115 641 -14C641 7.01151 636.874 27.8173 628.859 47.2294C620.843 66.6415 609.094 84.2797 594.284 99.1371C579.473 113.994 561.889 125.78 542.538 133.821C523.187 141.861 502.446 146 481.5 146L481.5 -14L481.5 -174Z" fill="white" fill-opacity="0.08" style="fill:white;fill:white;fill-opacity:0.08;"/>
<path d="M481.5 -174C502.446 -174 523.187 -169.861 542.538 -161.821C561.889 -153.78 579.473 -141.994 594.284 -127.137C609.094 -112.28 620.843 -94.6414 628.859 -75.2293C636.874 -55.8172 641 -35.0115 641 -14C641 7.01151 636.874 27.8173 628.859 47.2294C620.843 66.6415 609.094 84.2797 594.284 99.1371C579.473 113.994 561.889 125.78 542.538 133.821C523.187 141.861 502.446 146 481.5 146L481.5 -14L481.5 -174Z" stroke="white" stroke-opacity="0.08" style="stroke:white;stroke:white;stroke-opacity:0.08;" stroke-width="2" mask="url(#path-4-outside-3_372_5081)"/>
<mask id="path-5-outside-4_372_5081" maskUnits="userSpaceOnUse" x="1" y="-14" width="321" height="162" fill="black">
<rect fill="white" x="1" y="-14" width="321" height="162"/>
<path d="M321 146.5C321 125.554 316.874 104.813 308.859 85.462C300.843 66.1106 289.094 48.5274 274.284 33.7165C259.473 18.9055 241.889 7.15684 222.538 -0.858787C203.187 -8.87441 182.446 -13 161.5 -13C140.554 -13 119.813 -8.87441 100.462 -0.858782C81.1106 7.15684 63.5274 18.9055 48.7165 33.7165C33.9055 48.5274 22.1568 66.1106 14.1412 85.462C6.12559 104.813 2 125.554 2 146.5L161.5 146.5H321Z"/>
</mask>
<path d="M321 146.5C321 125.554 316.874 104.813 308.859 85.462C300.843 66.1106 289.094 48.5274 274.284 33.7165C259.473 18.9055 241.889 7.15684 222.538 -0.858787C203.187 -8.87441 182.446 -13 161.5 -13C140.554 -13 119.813 -8.87441 100.462 -0.858782C81.1106 7.15684 63.5274 18.9055 48.7165 33.7165C33.9055 48.5274 22.1568 66.1106 14.1412 85.462C6.12559 104.813 2 125.554 2 146.5L161.5 146.5H321Z" fill="white" fill-opacity="0.08" style="fill:white;fill:white;fill-opacity:0.08;"/>
<path d="M321 146.5C321 125.554 316.874 104.813 308.859 85.462C300.843 66.1106 289.094 48.5274 274.284 33.7165C259.473 18.9055 241.889 7.15684 222.538 -0.858787C203.187 -8.87441 182.446 -13 161.5 -13C140.554 -13 119.813 -8.87441 100.462 -0.858782C81.1106 7.15684 63.5274 18.9055 48.7165 33.7165C33.9055 48.5274 22.1568 66.1106 14.1412 85.462C6.12559 104.813 2 125.554 2 146.5L161.5 146.5H321Z" stroke="white" stroke-opacity="0.08" style="stroke:white;stroke:white;stroke-opacity:0.08;" stroke-width="2" mask="url(#path-5-outside-4_372_5081)"/>
<mask id="path-6-outside-5_372_5081" maskUnits="userSpaceOnUse" x="1" y="146" width="321" height="162" fill="black">
<rect fill="white" x="1" y="146" width="321" height="162"/>
<path d="M2.00001 147.5C2.00001 168.446 6.1256 189.187 14.1412 208.538C22.1568 227.889 33.9055 245.473 48.7165 260.284C63.5274 275.094 81.1106 286.843 100.462 294.859C119.813 302.874 140.554 307 161.5 307C182.446 307 203.187 302.874 222.538 294.859C241.889 286.843 259.473 275.094 274.284 260.284C289.094 245.473 300.843 227.889 308.859 208.538C316.874 189.187 321 168.446 321 147.5L161.5 147.5L2.00001 147.5Z"/>
</mask>
<path d="M2.00001 147.5C2.00001 168.446 6.1256 189.187 14.1412 208.538C22.1568 227.889 33.9055 245.473 48.7165 260.284C63.5274 275.094 81.1106 286.843 100.462 294.859C119.813 302.874 140.554 307 161.5 307C182.446 307 203.187 302.874 222.538 294.859C241.889 286.843 259.473 275.094 274.284 260.284C289.094 245.473 300.843 227.889 308.859 208.538C316.874 189.187 321 168.446 321 147.5L161.5 147.5L2.00001 147.5Z" stroke="white" stroke-opacity="0.08" style="stroke:white;stroke:white;stroke-opacity:0.08;" stroke-width="2" mask="url(#path-6-outside-5_372_5081)"/>
<mask id="path-7-outside-6_372_5081" maskUnits="userSpaceOnUse" x="1" y="308" width="321" height="162" fill="black">
<rect fill="white" x="1" y="308" width="321" height="162"/>
<path d="M321 468.5C321 447.554 316.874 426.813 308.859 407.462C300.843 388.111 289.094 370.527 274.284 355.716C259.473 340.906 241.889 329.157 222.538 321.141C203.187 313.126 182.446 309 161.5 309C140.554 309 119.813 313.126 100.462 321.141C81.1106 329.157 63.5274 340.906 48.7165 355.716C33.9055 370.527 22.1568 388.111 14.1412 407.462C6.12559 426.813 2 447.554 2 468.5L161.5 468.5H321Z"/>
</mask>
<path d="M321 468.5C321 447.554 316.874 426.813 308.859 407.462C300.843 388.111 289.094 370.527 274.284 355.716C259.473 340.906 241.889 329.157 222.538 321.141C203.187 313.126 182.446 309 161.5 309C140.554 309 119.813 313.126 100.462 321.141C81.1106 329.157 63.5274 340.906 48.7165 355.716C33.9055 370.527 22.1568 388.111 14.1412 407.462C6.12559 426.813 2 447.554 2 468.5L161.5 468.5H321Z" stroke="white" stroke-opacity="0.08" style="stroke:white;stroke:white;stroke-opacity:0.08;" stroke-width="2" mask="url(#path-7-outside-6_372_5081)"/>
<line opacity="0.9" x1="481.5" y1="-231" x2="481.5" y2="440" stroke="white" stroke-opacity="0.08" style="stroke:white;stroke:white;stroke-opacity:0.08;"/>
<line opacity="0.9" x1="321.5" y1="-242" x2="321.5" y2="429" stroke="white" stroke-opacity="0.08" style="stroke:white;stroke:white;stroke-opacity:0.08;"/>
<line opacity="0.9" x1="639" y1="146.5" x2="321" y2="146.5" stroke="white" stroke-opacity="0.08" style="stroke:white;stroke:white;stroke-opacity:0.08;"/>
<line opacity="0.9" x1="321" y1="308.5" x2="39" y2="308.5" stroke="white" stroke-opacity="0.08" style="stroke:white;stroke:white;stroke-opacity:0.08;"/>
<mask id="path-12-outside-7_372_5081" maskUnits="userSpaceOnUse" x="478" y="147" width="162" height="322" fill="black">
<rect fill="white" x="478" y="147" width="162" height="322"/>
<path d="M638.5 148C617.554 148 596.813 152.139 577.462 160.179C558.111 168.22 540.527 180.006 525.716 194.863C510.906 209.72 499.157 227.359 491.141 246.771C483.126 266.183 479 286.989 479 308C479 329.012 483.126 349.817 491.141 369.229C499.157 388.641 510.906 406.28 525.716 421.137C540.527 435.994 558.111 447.78 577.462 455.821C596.813 463.861 617.554 468 638.5 468L638.5 308L638.5 148Z"/>
</mask>
<path d="M638.5 148C617.554 148 596.813 152.139 577.462 160.179C558.111 168.22 540.527 180.006 525.716 194.863C510.906 209.72 499.157 227.359 491.141 246.771C483.126 266.183 479 286.989 479 308C479 329.012 483.126 349.817 491.141 369.229C499.157 388.641 510.906 406.28 525.716 421.137C540.527 435.994 558.111 447.78 577.462 455.821C596.813 463.861 617.554 468 638.5 468L638.5 308L638.5 148Z" stroke="white" stroke-opacity="0.08" style="stroke:white;stroke:white;stroke-opacity:0.08;" stroke-width="2" mask="url(#path-12-outside-7_372_5081)"/>
<mask id="path-13-outside-8_372_5081" maskUnits="userSpaceOnUse" x="958" y="-175" width="162" height="322" fill="black">
<rect fill="white" x="958" y="-175" width="162" height="322"/>
<path d="M959.5 146C980.446 146 1001.19 141.861 1020.54 133.821C1039.89 125.78 1057.47 113.994 1072.28 99.1371C1087.09 84.2797 1098.84 66.6414 1106.86 47.2293C1114.87 27.8172 1119 7.01149 1119 -14C1119 -35.0115 1114.87 -55.8173 1106.86 -75.2294C1098.84 -94.6415 1087.09 -112.28 1072.28 -127.137C1057.47 -141.994 1039.89 -153.78 1020.54 -161.821C1001.19 -169.861 980.446 -174 959.5 -174L959.5 -14L959.5 146Z"/>
</mask>
<path d="M959.5 146C980.446 146 1001.19 141.861 1020.54 133.821C1039.89 125.78 1057.47 113.994 1072.28 99.1371C1087.09 84.2797 1098.84 66.6414 1106.86 47.2293C1114.87 27.8172 1119 7.01149 1119 -14C1119 -35.0115 1114.87 -55.8173 1106.86 -75.2294C1098.84 -94.6415 1087.09 -112.28 1072.28 -127.137C1057.47 -141.994 1039.89 -153.78 1020.54 -161.821C1001.19 -169.861 980.446 -174 959.5 -174L959.5 -14L959.5 146Z" stroke="white" stroke-opacity="0.08" style="stroke:white;stroke:white;stroke-opacity:0.08;" stroke-width="2" mask="url(#path-13-outside-8_372_5081)"/>
<mask id="path-14-outside-9_372_5081" maskUnits="userSpaceOnUse" x="958" y="146" width="162" height="322" fill="black">
<rect fill="white" x="958" y="146" width="162" height="322"/>
<path d="M1118.5 147C1097.55 147 1076.81 151.139 1057.46 159.179C1038.11 167.22 1020.53 179.006 1005.72 193.863C990.906 208.72 979.157 226.359 971.141 245.771C963.126 265.183 959 285.989 959 307C959 328.012 963.126 348.817 971.141 368.229C979.157 387.641 990.906 405.28 1005.72 420.137C1020.53 434.994 1038.11 446.78 1057.46 454.821C1076.81 462.861 1097.55 467 1118.5 467L1118.5 307L1118.5 147Z"/>
</mask>
<path d="M1118.5 147C1097.55 147 1076.81 151.139 1057.46 159.179C1038.11 167.22 1020.53 179.006 1005.72 193.863C990.906 208.72 979.157 226.359 971.141 245.771C963.126 265.183 959 285.989 959 307C959 328.012 963.126 348.817 971.141 368.229C979.157 387.641 990.906 405.28 1005.72 420.137C1020.53 434.994 1038.11 446.78 1057.46 454.821C1076.81 462.861 1097.55 467 1118.5 467L1118.5 307L1118.5 147Z" fill="white" fill-opacity="0.08" style="fill:white;fill:white;fill-opacity:0.08;"/>
<path d="M1118.5 147C1097.55 147 1076.81 151.139 1057.46 159.179C1038.11 167.22 1020.53 179.006 1005.72 193.863C990.906 208.72 979.157 226.359 971.141 245.771C963.126 265.183 959 285.989 959 307C959 328.012 963.126 348.817 971.141 368.229C979.157 387.641 990.906 405.28 1005.72 420.137C1020.53 434.994 1038.11 446.78 1057.46 454.821C1076.81 462.861 1097.55 467 1118.5 467L1118.5 307L1118.5 147Z" stroke="white" stroke-opacity="0.08" style="stroke:white;stroke:white;stroke-opacity:0.08;" stroke-width="2" mask="url(#path-14-outside-9_372_5081)"/>
<mask id="path-15-outside-10_372_5081" maskUnits="userSpaceOnUse" x="1118" y="146" width="162" height="322" fill="black">
<rect fill="white" x="1118" y="146" width="162" height="322"/>
<path d="M1278.5 147C1257.55 147 1236.81 151.139 1217.46 159.179C1198.11 167.22 1180.53 179.006 1165.72 193.863C1150.91 208.72 1139.16 226.359 1131.14 245.771C1123.13 265.183 1119 285.989 1119 307C1119 328.012 1123.13 348.817 1131.14 368.229C1139.16 387.641 1150.91 405.28 1165.72 420.137C1180.53 434.994 1198.11 446.78 1217.46 454.821C1236.81 462.861 1257.55 467 1278.5 467L1278.5 307L1278.5 147Z"/>
</mask>
<path d="M1278.5 147C1257.55 147 1236.81 151.139 1217.46 159.179C1198.11 167.22 1180.53 179.006 1165.72 193.863C1150.91 208.72 1139.16 226.359 1131.14 245.771C1123.13 265.183 1119 285.989 1119 307C1119 328.012 1123.13 348.817 1131.14 368.229C1139.16 387.641 1150.91 405.28 1165.72 420.137C1180.53 434.994 1198.11 446.78 1217.46 454.821C1236.81 462.861 1257.55 467 1278.5 467L1278.5 307L1278.5 147Z" stroke="white" stroke-opacity="0.08" style="stroke:white;stroke:white;stroke-opacity:0.08;" stroke-width="2" mask="url(#path-15-outside-10_372_5081)"/>
<mask id="path-16-outside-11_372_5081" maskUnits="userSpaceOnUse" x="1118" y="-175" width="162" height="322" fill="black">
<rect fill="white" x="1118" y="-175" width="162" height="322"/>
<path d="M1119.5 -174C1140.45 -174 1161.19 -169.861 1180.54 -161.821C1199.89 -153.78 1217.47 -141.994 1232.28 -127.137C1247.09 -112.28 1258.84 -94.6414 1266.86 -75.2293C1274.87 -55.8172 1279 -35.0115 1279 -14C1279 7.01151 1274.87 27.8173 1266.86 47.2294C1258.84 66.6415 1247.09 84.2797 1232.28 99.1371C1217.47 113.994 1199.89 125.78 1180.54 133.821C1161.19 141.861 1140.45 146 1119.5 146L1119.5 -14L1119.5 -174Z"/>
</mask>
<path d="M1119.5 -174C1140.45 -174 1161.19 -169.861 1180.54 -161.821C1199.89 -153.78 1217.47 -141.994 1232.28 -127.137C1247.09 -112.28 1258.84 -94.6414 1266.86 -75.2293C1274.87 -55.8172 1279 -35.0115 1279 -14C1279 7.01151 1274.87 27.8173 1266.86 47.2294C1258.84 66.6415 1247.09 84.2797 1232.28 99.1371C1217.47 113.994 1199.89 125.78 1180.54 133.821C1161.19 141.861 1140.45 146 1119.5 146L1119.5 -14L1119.5 -174Z" fill="white" fill-opacity="0.08" style="fill:white;fill:white;fill-opacity:0.08;"/>
<path d="M1119.5 -174C1140.45 -174 1161.19 -169.861 1180.54 -161.821C1199.89 -153.78 1217.47 -141.994 1232.28 -127.137C1247.09 -112.28 1258.84 -94.6414 1266.86 -75.2293C1274.87 -55.8172 1279 -35.0115 1279 -14C1279 7.01151 1274.87 27.8173 1266.86 47.2294C1258.84 66.6415 1247.09 84.2797 1232.28 99.1371C1217.47 113.994 1199.89 125.78 1180.54 133.821C1161.19 141.861 1140.45 146 1119.5 146L1119.5 -14L1119.5 -174Z" stroke="white" stroke-opacity="0.08" style="stroke:white;stroke:white;stroke-opacity:0.08;" stroke-width="2" mask="url(#path-16-outside-11_372_5081)"/>
<mask id="path-17-outside-12_372_5081" maskUnits="userSpaceOnUse" x="639" y="-14" width="321" height="162" fill="black">
<rect fill="white" x="639" y="-14" width="321" height="162"/>
<path d="M959 146.5C959 125.554 954.874 104.813 946.859 85.462C938.843 66.1106 927.094 48.5274 912.284 33.7165C897.473 18.9055 879.889 7.15684 860.538 -0.858787C841.187 -8.87441 820.446 -13 799.5 -13C778.554 -13 757.813 -8.87441 738.462 -0.858782C719.111 7.15684 701.527 18.9055 686.716 33.7165C671.906 48.5274 660.157 66.1106 652.141 85.462C644.126 104.813 640 125.554 640 146.5L799.5 146.5H959Z"/>
</mask>
<path d="M959 146.5C959 125.554 954.874 104.813 946.859 85.462C938.843 66.1106 927.094 48.5274 912.284 33.7165C897.473 18.9055 879.889 7.15684 860.538 -0.858787C841.187 -8.87441 820.446 -13 799.5 -13C778.554 -13 757.813 -8.87441 738.462 -0.858782C719.111 7.15684 701.527 18.9055 686.716 33.7165C671.906 48.5274 660.157 66.1106 652.141 85.462C644.126 104.813 640 125.554 640 146.5L799.5 146.5H959Z" stroke="white" stroke-opacity="0.08" style="stroke:white;stroke:white;stroke-opacity:0.08;" stroke-width="2" mask="url(#path-17-outside-12_372_5081)"/>
<mask id="path-18-outside-13_372_5081" maskUnits="userSpaceOnUse" x="639" y="146" width="321" height="162" fill="black">
<rect fill="white" x="639" y="146" width="321" height="162"/>
<path d="M640 147.5C640 168.446 644.126 189.187 652.141 208.538C660.157 227.889 671.906 245.473 686.716 260.284C701.527 275.094 719.111 286.843 738.462 294.859C757.813 302.874 778.554 307 799.5 307C820.446 307 841.187 302.874 860.538 294.859C879.889 286.843 897.473 275.094 912.284 260.284C927.094 245.473 938.843 227.889 946.859 208.538C954.874 189.187 959 168.446 959 147.5L799.5 147.5L640 147.5Z"/>
</mask>
<path d="M640 147.5C640 168.446 644.126 189.187 652.141 208.538C660.157 227.889 671.906 245.473 686.716 260.284C701.527 275.094 719.111 286.843 738.462 294.859C757.813 302.874 778.554 307 799.5 307C820.446 307 841.187 302.874 860.538 294.859C879.889 286.843 897.473 275.094 912.284 260.284C927.094 245.473 938.843 227.889 946.859 208.538C954.874 189.187 959 168.446 959 147.5L799.5 147.5L640 147.5Z" fill="white" fill-opacity="0.08" style="fill:white;fill:white;fill-opacity:0.08;"/>
<path d="M640 147.5C640 168.446 644.126 189.187 652.141 208.538C660.157 227.889 671.906 245.473 686.716 260.284C701.527 275.094 719.111 286.843 738.462 294.859C757.813 302.874 778.554 307 799.5 307C820.446 307 841.187 302.874 860.538 294.859C879.889 286.843 897.473 275.094 912.284 260.284C927.094 245.473 938.843 227.889 946.859 208.538C954.874 189.187 959 168.446 959 147.5L799.5 147.5L640 147.5Z" stroke="white" stroke-opacity="0.08" style="stroke:white;stroke:white;stroke-opacity:0.08;" stroke-width="2" mask="url(#path-18-outside-13_372_5081)"/>
<mask id="path-19-outside-14_372_5081" maskUnits="userSpaceOnUse" x="639" y="308" width="321" height="162" fill="black">
<rect fill="white" x="639" y="308" width="321" height="162"/>
<path d="M959 468.5C959 447.554 954.874 426.813 946.859 407.462C938.843 388.111 927.094 370.527 912.284 355.716C897.473 340.906 879.889 329.157 860.538 321.141C841.187 313.126 820.446 309 799.5 309C778.554 309 757.813 313.126 738.462 321.141C719.111 329.157 701.527 340.906 686.716 355.716C671.906 370.527 660.157 388.111 652.141 407.462C644.126 426.813 640 447.554 640 468.5L799.5 468.5H959Z"/>
</mask>
<path d="M959 468.5C959 447.554 954.874 426.813 946.859 407.462C938.843 388.111 927.094 370.527 912.284 355.716C897.473 340.906 879.889 329.157 860.538 321.141C841.187 313.126 820.446 309 799.5 309C778.554 309 757.813 313.126 738.462 321.141C719.111 329.157 701.527 340.906 686.716 355.716C671.906 370.527 660.157 388.111 652.141 407.462C644.126 426.813 640 447.554 640 468.5L799.5 468.5H959Z" stroke="white" stroke-opacity="0.08" style="stroke:white;stroke:white;stroke-opacity:0.08;" stroke-width="2" mask="url(#path-19-outside-14_372_5081)"/>
<line opacity="0.9" x1="1119.5" y1="-231" x2="1119.5" y2="440" stroke="white" stroke-opacity="0.08" style="stroke:white;stroke:white;stroke-opacity:0.08;"/>
<line opacity="0.9" x1="959.5" y1="-242" x2="959.5" y2="429" stroke="white" stroke-opacity="0.08" style="stroke:white;stroke:white;stroke-opacity:0.08;"/>
<line opacity="0.9" x1="1289" y1="146.5" x2="959" y2="146.5" stroke="white" stroke-opacity="0.08" style="stroke:white;stroke:white;stroke-opacity:0.08;"/>
<line opacity="0.9" x1="959" y1="308.5" x2="677" y2="308.5" stroke="white" stroke-opacity="0.08" style="stroke:white;stroke:white;stroke-opacity:0.08;"/>
<mask id="path-24-outside-15_372_5081" maskUnits="userSpaceOnUse" x="1279" y="-14" width="321" height="162" fill="black">
<rect fill="white" x="1279" y="-14" width="321" height="162"/>
<path d="M1599 146.5C1599 125.554 1594.87 104.813 1586.86 85.462C1578.84 66.1106 1567.09 48.5274 1552.28 33.7165C1537.47 18.9055 1519.89 7.15684 1500.54 -0.858787C1481.19 -8.87441 1460.45 -13 1439.5 -13C1418.55 -13 1397.81 -8.87441 1378.46 -0.858782C1359.11 7.15684 1341.53 18.9055 1326.72 33.7165C1311.91 48.5274 1300.16 66.1106 1292.14 85.462C1284.13 104.813 1280 125.554 1280 146.5L1439.5 146.5H1599Z"/>
</mask>
<path d="M1599 146.5C1599 125.554 1594.87 104.813 1586.86 85.462C1578.84 66.1106 1567.09 48.5274 1552.28 33.7165C1537.47 18.9055 1519.89 7.15684 1500.54 -0.858787C1481.19 -8.87441 1460.45 -13 1439.5 -13C1418.55 -13 1397.81 -8.87441 1378.46 -0.858782C1359.11 7.15684 1341.53 18.9055 1326.72 33.7165C1311.91 48.5274 1300.16 66.1106 1292.14 85.462C1284.13 104.813 1280 125.554 1280 146.5L1439.5 146.5H1599Z" stroke="white" stroke-opacity="0.08" style="stroke:white;stroke:white;stroke-opacity:0.08;" stroke-width="2" mask="url(#path-24-outside-15_372_5081)"/>
<mask id="path-25-outside-16_372_5081" maskUnits="userSpaceOnUse" x="1279" y="146" width="321" height="162" fill="black">
<rect fill="white" x="1279" y="146" width="321" height="162"/>
<path d="M1280 147.5C1280 168.446 1284.13 189.187 1292.14 208.538C1300.16 227.889 1311.91 245.473 1326.72 260.284C1341.53 275.094 1359.11 286.843 1378.46 294.859C1397.81 302.874 1418.55 307 1439.5 307C1460.45 307 1481.19 302.874 1500.54 294.859C1519.89 286.843 1537.47 275.094 1552.28 260.284C1567.09 245.473 1578.84 227.889 1586.86 208.538C1594.87 189.187 1599 168.446 1599 147.5L1439.5 147.5L1280 147.5Z"/>
</mask>
<path d="M1280 147.5C1280 168.446 1284.13 189.187 1292.14 208.538C1300.16 227.889 1311.91 245.473 1326.72 260.284C1341.53 275.094 1359.11 286.843 1378.46 294.859C1397.81 302.874 1418.55 307 1439.5 307C1460.45 307 1481.19 302.874 1500.54 294.859C1519.89 286.843 1537.47 275.094 1552.28 260.284C1567.09 245.473 1578.84 227.889 1586.86 208.538C1594.87 189.187 1599 168.446 1599 147.5L1439.5 147.5L1280 147.5Z" fill="white" fill-opacity="0.08" style="fill:white;fill:white;fill-opacity:0.08;"/>
<path d="M1280 147.5C1280 168.446 1284.13 189.187 1292.14 208.538C1300.16 227.889 1311.91 245.473 1326.72 260.284C1341.53 275.094 1359.11 286.843 1378.46 294.859C1397.81 302.874 1418.55 307 1439.5 307C1460.45 307 1481.19 302.874 1500.54 294.859C1519.89 286.843 1537.47 275.094 1552.28 260.284C1567.09 245.473 1578.84 227.889 1586.86 208.538C1594.87 189.187 1599 168.446 1599 147.5L1439.5 147.5L1280 147.5Z" stroke="white" stroke-opacity="0.08" style="stroke:white;stroke:white;stroke-opacity:0.08;" stroke-width="2" mask="url(#path-25-outside-16_372_5081)"/>
<mask id="path-26-outside-17_372_5081" maskUnits="userSpaceOnUse" x="1279" y="308" width="321" height="162" fill="black">
<rect fill="white" x="1279" y="308" width="321" height="162"/>
<path d="M1599 468.5C1599 447.554 1594.87 426.813 1586.86 407.462C1578.84 388.111 1567.09 370.527 1552.28 355.716C1537.47 340.906 1519.89 329.157 1500.54 321.141C1481.19 313.126 1460.45 309 1439.5 309C1418.55 309 1397.81 313.126 1378.46 321.141C1359.11 329.157 1341.53 340.906 1326.72 355.716C1311.91 370.527 1300.16 388.111 1292.14 407.462C1284.13 426.813 1280 447.554 1280 468.5L1439.5 468.5H1599Z"/>
</mask>
<path d="M1599 468.5C1599 447.554 1594.87 426.813 1586.86 407.462C1578.84 388.111 1567.09 370.527 1552.28 355.716C1537.47 340.906 1519.89 329.157 1500.54 321.141C1481.19 313.126 1460.45 309 1439.5 309C1418.55 309 1397.81 313.126 1378.46 321.141C1359.11 329.157 1341.53 340.906 1326.72 355.716C1311.91 370.527 1300.16 388.111 1292.14 407.462C1284.13 426.813 1280 447.554 1280 468.5L1439.5 468.5H1599Z" stroke="white" stroke-opacity="0.08" style="stroke:white;stroke:white;stroke-opacity:0.08;" stroke-width="2" mask="url(#path-26-outside-17_372_5081)"/>
<line opacity="0.9" x1="1599" y1="308.5" x2="1317" y2="308.5" stroke="white" stroke-opacity="0.08" style="stroke:white;stroke:white;stroke-opacity:0.08;"/>
</g>
<defs>
<radialGradient id="paint0_radial_372_5081" cx="0" cy="0" r="1" gradientUnits="userSpaceOnUse" gradientTransform="translate(711.5 137) rotate(90) scale(142 1608.02)">
<stop stop-color="#D9D9D9" style="stop-color:#D9D9D9;stop-color:color(display-p3 0.8510 0.8510 0.8510);stop-opacity:1;"/>
<stop offset="1" stop-color="#D9D9D9" stop-opacity="0" style="stop-color:none;stop-color:none;stop-opacity:0;"/>
</radialGradient>
</defs>
</svg>
