<svg width="56" height="56" viewBox="0 0 56 56" fill="none" xmlns="http://www.w3.org/2000/svg">
<g filter="url(#filter0_d_369_4739)">
<path d="M14.2841 27.021C14.9129 21.9906 15.2273 19.4754 16.4772 17.6759C17.5767 16.093 19.1658 14.8899 21.0167 14.2391C23.121 13.4992 25.7153 13.8122 30.9041 14.4382L38.3159 15.3324C43.5047 15.9584 46.0991 16.2714 47.9586 17.4894C49.5942 18.5609 50.8398 20.1059 51.5168 21.9032C52.2865 23.9464 51.9721 26.4616 51.3433 31.492L50.5948 37.48C49.9137 42.9296 49.5731 45.6544 48.219 47.6039C47.0279 49.3187 45.3064 50.622 43.3012 51.3271C41.0217 52.1287 38.2111 51.7895 32.5899 51.1114L26.4133 50.3662C21.2246 49.7402 18.6302 49.4272 16.7707 48.2092C15.1351 47.1377 13.8895 45.5927 13.2125 43.7954C12.4428 41.7522 12.7572 39.237 13.3859 34.2066L14.2841 27.021Z" fill="url(#paint0_linear_369_4739)" style=""/>
<path d="M14.2841 27.021C14.9129 21.9906 15.2273 19.4754 16.4772 17.6759C17.5767 16.093 19.1658 14.8899 21.0167 14.2391C23.121 13.4992 25.7153 13.8122 30.9041 14.4382L38.3159 15.3324C43.5047 15.9584 46.0991 16.2714 47.9586 17.4894C49.5942 18.5609 50.8398 20.1059 51.5168 21.9032C52.2865 23.9464 51.9721 26.4616 51.3433 31.492L50.5948 37.48C49.9137 42.9296 49.5731 45.6544 48.219 47.6039C47.0279 49.3187 45.3064 50.622 43.3012 51.3271C41.0217 52.1287 38.2111 51.7895 32.5899 51.1114L26.4133 50.3662C21.2246 49.7402 18.6302 49.4272 16.7707 48.2092C15.1351 47.1377 13.8895 45.5927 13.2125 43.7954C12.4428 41.7522 12.7572 39.237 13.3859 34.2066L14.2841 27.021Z" fill="url(#paint1_linear_369_4739)" style=""/>
</g>
<g filter="url(#filter1_d_369_4739)">
<path d="M38.7462 10.8297L20.1051 9.85273C14.9575 9.58295 10.5725 13.4108 10.3109 18.4024L9.36355 36.4786C9.10195 41.4702 13.0628 45.7354 18.2104 46.0051L36.8515 46.9821C41.9991 47.2519 46.3841 43.424 46.6457 38.4324L47.593 20.3562C47.8546 15.3646 43.8938 11.0994 38.7462 10.8297Z" fill="url(#paint2_linear_369_4739)" style=""/>
<path d="M38.7462 10.8297L20.1051 9.85273C14.9575 9.58295 10.5725 13.4108 10.3109 18.4024L9.36355 36.4786C9.10195 41.4702 13.0628 45.7354 18.2104 46.0051L36.8515 46.9821C41.9991 47.2519 46.3841 43.424 46.6457 38.4324L47.593 20.3562C47.8546 15.3646 43.8938 11.0994 38.7462 10.8297Z" fill="url(#paint3_linear_369_4739)" style=""/>
</g>
<g filter="url(#filter2_d_369_4739)">
<path d="M32.5985 5.29814L13.9773 6.56081C8.83518 6.90948 4.95818 11.2343 5.31775 16.2206L6.61987 34.2775C6.97944 39.2638 11.4394 43.0233 16.5815 42.6746L35.2027 41.412C40.3448 41.0633 44.2218 36.7385 43.8623 31.7522L42.5601 13.6953C42.2006 8.70899 37.7406 4.94947 32.5985 5.29814Z" fill="url(#paint4_linear_369_4739)" style=""/>
<path d="M32.5985 5.29814L13.9773 6.56081C8.83518 6.90948 4.95818 11.2343 5.31775 16.2206L6.61987 34.2775C6.97944 39.2638 11.4394 43.0233 16.5815 42.6746L35.2027 41.412C40.3448 41.0633 44.2218 36.7385 43.8623 31.7522L42.5601 13.6953C42.2006 8.70899 37.7406 4.94947 32.5985 5.29814Z" fill="url(#paint5_linear_369_4739)" style=""/>
</g>
<path d="M18.2189 16.1579C18.3387 14.4958 17.0464 13.0542 15.3324 12.938C13.6183 12.8218 12.1317 14.0749 12.0118 15.737C11.8919 17.3991 13.1843 18.8407 14.8983 18.957C16.6123 19.0732 18.099 17.82 18.2189 16.1579Z" fill="white" fill-opacity="0.8" style="fill:white;fill:white;fill-opacity:0.8;"/>
<path d="M32.7025 19.3284L13.3478 21.1649C12.4927 21.246 11.8604 21.9845 11.9355 22.8143C12.0107 23.6441 12.7648 24.251 13.62 24.1699L32.9746 22.3334C33.8298 22.2522 34.4621 21.5138 34.387 20.684C34.3118 19.8542 33.5576 19.2472 32.7025 19.3284Z" fill="white" fill-opacity="0.4" style="fill:white;fill:white;fill-opacity:0.4;"/>
<path d="M27.5332 26.0881L14.3761 27.3798C13.5213 27.4637 12.8914 28.2042 12.9692 29.0338C13.0471 29.8633 13.8032 30.4678 14.6581 30.3839L27.8151 29.0922C28.67 29.0083 29.2999 28.2678 29.222 27.4382C29.1442 26.6087 28.3881 26.0042 27.5332 26.0881Z" fill="white" fill-opacity="0.4" style="fill:white;fill:white;fill-opacity:0.4;"/>
<defs>
<filter id="filter0_d_369_4739" x="9.3654" y="10.9" width="45.9985" height="44.7718" filterUnits="userSpaceOnUse" color-interpolation-filters="sRGB">
<feFlood flood-opacity="0" result="BackgroundImageFix"/>
<feColorMatrix in="SourceAlpha" type="matrix" values="0 0 0 0 0 0 0 0 0 0 0 0 0 0 0 0 0 0 127 0" result="hardAlpha"/>
<feOffset dy="0.484848"/>
<feGaussianBlur stdDeviation="1.69697"/>
<feColorMatrix type="matrix" values="0 0 0 0 0 0 0 0 0 0 0 0 0 0 0 0 0 0 0.15 0"/>
<feBlend mode="normal" in2="BackgroundImageFix" result="effect1_dropShadow_369_4739"/>
<feBlend mode="normal" in="SourceGraphic" in2="effect1_dropShadow_369_4739" result="shape"/>
</filter>
<filter id="filter1_d_369_4739" x="5.95738" y="6.93026" width="45.0418" height="43.9441" filterUnits="userSpaceOnUse" color-interpolation-filters="sRGB">
<feFlood flood-opacity="0" result="BackgroundImageFix"/>
<feColorMatrix in="SourceAlpha" type="matrix" values="0 0 0 0 0 0 0 0 0 0 0 0 0 0 0 0 0 0 127 0" result="hardAlpha"/>
<feOffset dy="0.484848"/>
<feGaussianBlur stdDeviation="1.69697"/>
<feColorMatrix type="matrix" values="0 0 0 0 0 0 0 0 0 0 0 0 0 0 0 0 0 0 0.15 0"/>
<feBlend mode="normal" in2="BackgroundImageFix" result="effect1_dropShadow_369_4739"/>
<feBlend mode="normal" in="SourceGraphic" in2="effect1_dropShadow_369_4739" result="shape"/>
</filter>
<filter id="filter2_d_369_4739" x="1.90068" y="2.36654" width="45.3786" height="44.2093" filterUnits="userSpaceOnUse" color-interpolation-filters="sRGB">
<feFlood flood-opacity="0" result="BackgroundImageFix"/>
<feColorMatrix in="SourceAlpha" type="matrix" values="0 0 0 0 0 0 0 0 0 0 0 0 0 0 0 0 0 0 127 0" result="hardAlpha"/>
<feOffset dy="0.484848"/>
<feGaussianBlur stdDeviation="1.69697"/>
<feColorMatrix type="matrix" values="0 0 0 0 0 0 0 0 0 0 0 0 0 0 0 0 0 0 0.15 0"/>
<feBlend mode="normal" in2="BackgroundImageFix" result="effect1_dropShadow_369_4739"/>
<feBlend mode="normal" in="SourceGraphic" in2="effect1_dropShadow_369_4739" result="shape"/>
</filter>
<linearGradient id="paint0_linear_369_4739" x1="37.219" y1="14.5127" x2="46.0576" y2="53.9182" gradientUnits="userSpaceOnUse">
<stop stop-color="#55F5FF" style="stop-color:#55F5FF;stop-color:color(display-p3 0.3333 0.9600 1.0000);stop-opacity:1;"/>
<stop offset="1" stop-color="#18AEB8" style="stop-color:#18AEB8;stop-color:color(display-p3 0.0931 0.6832 0.7208);stop-opacity:1;"/>
</linearGradient>
<linearGradient id="paint1_linear_369_4739" x1="34.61" y1="14.8853" x2="30.2732" y2="50.8319" gradientUnits="userSpaceOnUse">
<stop offset="0.0001" stop-color="white" stop-opacity="0.32" style="stop-color:white;stop-color:white;stop-opacity:0.32;"/>
<stop offset="1" stop-color="white" stop-opacity="0" style="stop-color:none;stop-color:none;stop-opacity:0;"/>
</linearGradient>
<linearGradient id="paint2_linear_369_4739" x1="29.4256" y1="10.3412" x2="27.531" y2="46.4936" gradientUnits="userSpaceOnUse">
<stop stop-color="#FFCD4B" style="stop-color:#FFCD4B;stop-color:color(display-p3 1.0000 0.8028 0.2958);stop-opacity:1;"/>
<stop offset="1" stop-color="#E7AF21" style="stop-color:#E7AF21;stop-color:color(display-p3 0.9042 0.6869 0.1281);stop-opacity:1;"/>
</linearGradient>
<linearGradient id="paint3_linear_369_4739" x1="29.4256" y1="10.3412" x2="27.531" y2="46.4936" gradientUnits="userSpaceOnUse">
<stop offset="0.0001" stop-color="white" stop-opacity="0.32" style="stop-color:white;stop-color:white;stop-opacity:0.32;"/>
<stop offset="1" stop-color="white" stop-opacity="0" style="stop-color:none;stop-color:none;stop-opacity:0;"/>
</linearGradient>
<linearGradient id="paint4_linear_369_4739" x1="23.2879" y1="5.92948" x2="25.7374" y2="42.0538" gradientUnits="userSpaceOnUse">
<stop stop-color="#A586FF" style="stop-color:#A586FF;stop-color:color(display-p3 0.6476 0.5250 1.0000);stop-opacity:1;"/>
<stop offset="1" stop-color="#6139D1" style="stop-color:#6139D1;stop-color:color(display-p3 0.3792 0.2231 0.8208);stop-opacity:1;"/>
</linearGradient>
<linearGradient id="paint5_linear_369_4739" x1="23.2879" y1="5.92948" x2="25.7374" y2="42.0538" gradientUnits="userSpaceOnUse">
<stop offset="0.0001" stop-color="white" stop-opacity="0.32" style="stop-color:white;stop-color:white;stop-opacity:0.32;"/>
<stop offset="1" stop-color="white" stop-opacity="0" style="stop-color:none;stop-color:none;stop-opacity:0;"/>
</linearGradient>
</defs>
</svg>
