<svg width="18" height="20" viewBox="0 0 18 20" fill="none" xmlns="http://www.w3.org/2000/svg">
<g clip-path="url(#clip0_364_4707)">
<path d="M3.91719 17.5001H0.289063V5.8165H3.91719V17.5001ZM2.10117 4.22275C0.941016 4.22275 0 3.26182 0 2.10166C8.3039e-09 1.54439 0.221373 1.00995 0.615419 0.615907C1.00947 0.221861 1.54391 0.000488281 2.10117 0.000488281C2.65844 0.000488281 3.19288 0.221861 3.58692 0.615907C3.98097 1.00995 4.20234 1.54439 4.20234 2.10166C4.20234 3.26182 3.26094 4.22275 2.10117 4.22275ZM17.4961 17.5001H13.8758V11.8126C13.8758 10.4571 13.8484 8.71885 11.9895 8.71885C10.1031 8.71885 9.81406 10.1915 9.81406 11.7149V17.5001H6.18984V5.8165H9.66953V7.41025H9.72031C10.2047 6.49228 11.3879 5.52353 13.1531 5.52353C16.825 5.52353 17.5 7.9415 17.5 11.0821V17.5001H17.4961Z" fill="white" fill-opacity="0.5" style="fill:white;fill:white;fill-opacity:0.5;"/>
</g>
<defs>
<clipPath id="clip0_364_4707">
<rect width="17.5" height="20" fill="white" style="fill:white;fill:white;fill-opacity:1;"/>
</clipPath>
</defs>
</svg>
